<svg width="24" height="24" viewBox="0 0 24 24" fill="none" xmlns="http://www.w3.org/2000/svg">
<g clip-path="url(#clip0)">
<path d="M10.71 4.6875e-05C4.79501 4.6875e-05 0 4.79506 0 10.71C0 16.626 4.79501 21.42 10.71 21.42C13.175 21.42 15.511 20.586 17.396 19.079L17.596 19.089L22.032 23.525C22.2212 23.7058 22.4781 23.817 22.761 23.817C23.3442 23.817 23.817 23.3443 23.817 22.761C23.817 22.4781 23.7057 22.2212 23.5246 22.0316L23.525 22.032L19.09 17.597L19.079 17.396C20.538 15.5873 21.421 13.2608 21.421 10.7281C21.421 10.7217 21.421 10.7154 21.421 10.709V10.71C21.42 4.79501 16.626 0 10.71 0L10.71 4.6875e-05ZM10.71 2.11205C15.4573 2.11446 19.3048 5.96344 19.3048 10.7111C19.3048 13.0366 18.3817 15.1465 16.8818 16.6943L16.884 16.692L16.832 16.736L16.766 16.799L16.679 16.9C15.1347 18.3912 13.0292 19.31 10.7092 19.31C5.96006 19.31 2.11015 15.4601 2.11015 10.711C2.11015 5.96194 5.96006 2.11202 10.7092 2.11202C10.7095 2.11202 10.7098 2.11202 10.71 2.11202H10.71V2.11205Z" fill="black"/>
</g>
<defs>
<clipPath id="clip0">
<rect width="24" height="24" fill="white"/>
</clipPath>
</defs>
</svg>
