<svg xmlns="http://www.w3.org/2000/svg" width="32" height="33" viewBox="0 0 32 33">
    <defs>
        <filter id="prefix__a" width="129%" height="283%" x="-14.5%" y="-91.5%" filterUnits="objectBoundingBox">
            <feOffset dy="5" in="SourceAlpha" result="shadowOffsetOuter1"/>
            <feGaussianBlur in="shadowOffsetOuter1" result="shadowBlurOuter1" stdDeviation="10"/>
            <feColorMatrix in="shadowBlurOuter1" result="shadowMatrixOuter1" values="0 0 0 0 0 0 0 0 0 0 0 0 0 0 0 0 0 0 0.103310752 0"/>
            <feMerge>
                <feMergeNode in="shadowMatrixOuter1"/>
                <feMergeNode in="SourceGraphic"/>
            </feMerge>
        </filter>
    </defs>
    <g fill="#C2002F" fill-rule="evenodd" filter="url(#prefix__a)" transform="translate(-18 -11)">
        <g>
            <path d="M10.906 6.36c.305-.033.622-.09.649-.458.026-.339-.269-.429-.536-.47-.304-.048-.542.094-.58.402-.04.313.164.48.467.527M4.89 6.292c.3-.037.532-.17.524-.486-.009-.341-.236-.547-.575-.486-.27.048-.631.127-.591.506.035.337.343.428.642.466m6.679 12.787c-.214-.373-.462-.1-.66.01-1.403.775-2.855 1.196-4.458.7-.593-.183-1.157-.425-1.7-.721-.172-.094-.384-.183-.498.02-.116.205.09.338.245.438.43.277.89.49 1.378.646.684.216 1.423.334 1.866 1.003.149.224.31.167.426-.043.332-.595.909-.785 1.518-.944.547-.142 1.061-.373 1.54-.676.158-.1.325-.197.343-.433m8.466 4.698h.403c1.083-.004 1.083-.004 1.094-1.119.02-1.882.02-1.882-2.116-1.883-1.194 0-1.194 0-1.19 1.186.008 1.829.008 1.829 1.809 1.816m4.415-8.904c-.007-1.254-1.134-2.34-2.406-2.316-1.258.023-2.337 1.088-2.33 2.305.004 1.254 1.15 2.365 2.401 2.33 1.242-.036 2.343-1.128 2.335-2.319M23.442 4.648v-.016c1.423 0 2.846-.004 4.27.002.451 0 .88.021.88-.626-.003-.624-.27-.953-.914-.953-.806.001-1.612-.008-2.418-.01-2.014-.004-4.028-.008-6.042-.007-.645 0-.993.294-1.002.973-.01.736.524.626.956.631 1.423.016 2.846.006 4.27.006m2.196 16.131v-.002h-.888c-2.335 0-2.32 0-2.135 2.325.042.521.252.696.752.686 1.022-.02 2.045-.013 3.067-.005 2.36.02 2.134.13 2.156-2.198 0-.054-.003-.107 0-.16.02-.483-.217-.665-.692-.652-.753.022-1.506.006-2.26.006m-7.411-8.075c0 1.662.002 3.324 0 4.986-.003 2.682-.004 2.682 2.706 2.407.054-.005.108-.006.161-.011.244-.023.369-.144.427-.396.199-.867-.033-1.362-.848-1.733-1.423-.645-2.172-2.005-1.985-3.607.152-1.31 1.264-2.49 2.593-2.75 1.635-.324 3.112.33 3.844 1.7.747 1.4.553 2.739-.57 3.898-.42.435-.935.703-1.499.916-.81.305-.395 1.007-.42 1.536-.026.512.44.443.779.445 1.454.007 2.909-.015 4.363.014.58.013.82-.165.819-.772-.016-4.424-.016-8.848-.001-13.271.002-.59-.203-.791-.804-.786-2.882.025-5.764.026-8.645-.004-.694-.007-.95.193-.936.913.04 2.17.015 4.343.016 6.515m10.965.762v9.574c-.001.959-.278 1.24-1.237 1.242-1.536.004-3.072.017-4.607-.01-.546-.008-.777.154-.755.728.129 3.434-1.969 6.67-6.367 7.56-3.03.614-7.075-1.46-8.173-5.143-.18-.606-.227-1.256-.848-1.665-.3-.198-.319-.6-.316-.96.005-.804-.025-1.61.009-2.413.024-.586-.216-.898-.778-1.032-.631-.15-1.226-.405-1.805-.694-.678-.337-1.262-.74-1.254-1.61.001-.264-.217-.418-.375-.598-1.368-1.552-2.083-3.35-2.073-5.426.007-1.421.007-2.843 0-4.265-.006-1.488.678-2.558 1.998-3.213.581-.289.827-.94 1.499-1.163.831-.273 1.531-.218 2.042.4.458.553.478 1.365.048 1.942-.47.63-1.188.783-2.029.43-.173-.072-.346-.15-.513-.236-.8-.418-1.191-.287-1.61.537-.174.346-.228.71-.226 1.091.004 1.69 0 3.38.007 5.069.005 1.277.438 2.42 1.157 3.456.35.505.706 1.02 1.491.804.197-.055.48.074.684.186 1.85 1.01 3.68 1.006 5.509-.05.18-.105.426-.22.605-.18.85.194 1.215-.373 1.583-.939.673-1.037 1.044-2.167 1.038-3.413-.006-1.61-.006-3.219 0-4.828 0-.438-.061-.851-.282-1.239-.426-.75-.732-.844-1.49-.42-.605.337-1.218.605-1.91.26-.812-.408-1.1-1.45-.62-2.208.577-.914 1.336-1.06 2.212-.5.714.455 1.297 1.067 2 1.544.77.523 1.177 1.336 1.148 2.35-.047 1.662-.053 3.327.001 4.988.064 1.91-.67 3.491-1.855 4.92-.119.143-.341.283-.345.429-.037 1.547-1.29 1.86-2.375 2.25-.565.206-.74.513-.75 1.022-.013.75-.025 1.501-.012 2.251.011.632-.011 1.235-.548 1.69-.248.211-.149.486-.084.75.753 3.05 3.896 5.133 7.08 4.689 3.215-.448 5.632-3.279 5.511-6.437-.018-.472-.124-.752-.693-.713-.67.046-1.346.013-2.02.007-.869-.009-1.26-.39-1.27-1.276-.014-1.153-.004-2.307-.004-3.46V4.176c0-1.374.372-1.739 1.772-1.74 2.801 0 5.603-.002 8.406 0 1.03 0 1.426.412 1.425 1.455v9.575M29.558.337c1.715-.005 2.487 1.143 1.884 2.78-.074.198-.195.226-.36.22-.22-.008-.244-.16-.248-.332-.008-.4-.019-.8-.032-1.198-.019-.565-.331-.81-.88-.804-.375.004-.751.002-1.126-.007-.228-.004-.507.065-.527-.31-.021-.38.246-.344.485-.348.268-.004.536-.001.804-.001" transform="translate(18 11)"/>
            <path d="M30.327 2.7c-.066.218.171.601-.321.65-.492.047-.392-.321-.417-.59-.05-.529-.418-.625-.852-.643-.263-.01-.49-.064-.467-.4.025-.337.293-.243.486-.258 1.191-.086 1.585.22 1.57 1.241M23.406 4.145c-.48 0-.962.007-1.443-.003-.21-.005-.471-.002-.462-.305.007-.23.225-.285.414-.286 1.015-.008 2.03-.006 3.046.002.192.002.397.055.379.307-.017.237-.214.285-.41.287-.509.005-1.016.002-1.524.002v-.004zM19.892 3.855c-.058.23-.232.287-.426.289-.204.002-.39-.072-.377-.307.013-.23.21-.293.406-.28.19.012.369.07.397.298M21.968 16.18c-.722-.03-1.345-.68-1.305-1.365.038-.648.686-1.223 1.37-1.215.737.007 1.36.622 1.34 1.32-.02.694-.683 1.288-1.405 1.26z" transform="translate(18 11)"/>
        </g>
    </g>
</svg>
