<svg width="36" height="36" viewBox="0 0 36 36" fill="none" xmlns="http://www.w3.org/2000/svg">
<g clip-path="url(#clip0)">
<path d="M36.0116 18C36.0116 27.6724 27.9502 35.5135 18.0058 35.5135C8.06149 35.5135 0 27.6724 0 18C0 8.32757 8.06149 0.486496 18.0058 0.486496C27.9502 0.486496 36.0116 8.32757 36.0116 18Z" fill="white"/>
<path d="M28.0391 8.78693L28.2792 9.02044C29.7271 10.427 30.6227 12.3711 30.6227 14.5187C30.6227 16.6653 29.7279 18.6086 28.2812 20.015L19.4103 28.6434C19.0155 29.0275 18.4699 29.2652 17.8673 29.2652C17.2646 29.2652 16.7191 29.0276 16.3243 28.6434L7.45236 20.0141C4.33236 16.9794 4.33333 12.0552 7.45536 9.01949L7.69543 8.78598C9.00965 7.50777 10.8252 6.71721 12.8305 6.71721C14.7872 6.71721 16.5631 7.46984 17.869 8.6937L17.8667 8.69159C19.1704 7.4698 20.9463 6.71718 22.903 6.71718C24.9083 6.71718 26.7238 7.50777 28.0381 8.78595L28.0391 8.78693ZM25.8845 17.6828C26.7169 16.8732 27.2319 15.7547 27.2319 14.5192C27.2319 13.2823 26.7157 12.1626 25.8815 11.3527L25.6414 11.1192C24.9407 10.4372 23.9725 10.0153 22.903 10.0153C21.8335 10.0153 20.8653 10.4372 20.1646 11.1191L20.1646 11.1192L19.0662 12.1894C18.7594 12.4878 18.3355 12.6724 17.8674 12.6724C17.3992 12.6724 16.9753 12.4878 16.6685 12.1894L15.5701 11.1192C14.8693 10.4374 13.9012 10.0157 12.8317 10.0157C11.7623 10.0157 10.7941 10.4374 10.0933 11.1192L9.85327 11.3527C9.01995 12.163 8.50453 13.2826 8.50453 14.5192C8.50453 15.7544 9.01876 16.8728 9.8503 17.6829L17.8679 25.4812L25.8845 17.6828H25.8845Z" fill="#C11E43"/>
</g>
<defs>
<clipPath id="clip0">
<rect width="36" height="36" fill="white"/>
</clipPath>
</defs>
</svg>
