<svg xmlns="http://www.w3.org/2000/svg" width="24" height="24" viewBox="0 0 24 24">
    <g fill="none" fill-rule="evenodd">
        <g>
            <path fill="#B3354B" d="M20.05 17.575c-.05.05-.1.05-.15.1-.151.125-.151.4-.35.45-.05 0-.15 0-.175.05-.025.025-.025.075-.025.1-.05.1-.175.124-.225.224-.05.075-.025.175-.05.275 0 .2-.1.375-.25.5-.025.026-.075.05-.1.1-.025.075.05.125.05.2 0 .05-.05.1-.05.15-.025.1.076.2.175.175.05-.025.1-.05.125-.1.35-.349.7-.75.776-1.25.025-.074.025-.15.075-.2.05-.05.15-.075.15-.15 0-.025 0-.05-.025-.075 0-.075.05-.125.075-.2.075-.15.1-.35.026-.5.023.05-.002.101-.052.151zM11.175 4.776c-.05-.076-.075-.175-.1-.276h-.05c-.025-.05-.05-.125-.075-.175 0-.025-.025-.05-.025-.05-.026-.025-.075 0-.1-.025.075-.075.15-.175.2-.25-.1.025-.2.025-.275 0 .075-.05.125-.1.2-.125.026-.025.05-.05.05-.075-.025-.025-.05 0-.075 0-.075.075-.125.05-.225.075-.05.025-.075.1-.15.1 0-.026-.026-.075 0-.1-.1.05-.175.125-.25.2.05-.025.075-.05.125-.05s.1.05.075.1c-.05-.025-.1 0-.125.05.075 0 .125.025.175.05-.05.025-.1.075-.125.1.05-.05.15-.05.224 0-.075.025-.125.124-.125.2.05-.076.125-.1.2-.1v.05c.026 0 .026.025.05.025-.025.05-.025.1 0 .15-.05.05-.15.05-.224.026 0 .025 0 .05.025.075 0 .05-.025.125-.075.15-.025 0-.05 0-.05.026-.025 0-.025.05 0 .05.026-.026.075-.026.125-.026s.1.026.175.026c-.025.05-.075.1-.125.1-.025 0-.025 0-.05-.026-.075 0-.125.125-.2.15.05-.025.15.026.2-.025.026-.026.026-.05.05-.075.025-.026.075-.026.1 0 .025.025.05.05.1.05.099.025.2-.076.299-.05h.075c.05-.026.075-.1.05-.175.05 0 .075-.026.125-.05.025-.025.05-.075.025-.125-.1-.026-.174 0-.224.024z"/>
            <path fill="#B3354B" d="M10.35 4.575c0-.025-.026-.05 0-.075 0-.025.025-.025.05-.025s.025-.026.025-.05c-.026-.05-.05-.075-.1-.1-.025 0-.075-.025-.1 0-.05.026-.025.1-.075.125-.05.026-.15-.05-.175.05v.05s.026 0 .026.025c.025.026 0 .1.05.1 0 .025-.026.05-.076.075-.025 0-.075 0-.1.025-.025.026-.049.05-.025.076.026.05.1.075.15.05l.076-.076c.075-.05.175 0 .25-.05.049-.05.023-.125.023-.2zM7.325 3.075c.175-.025.276-.2.45-.275.076-.026.15-.026.2-.075.1-.05.151-.175.25-.225.175-.1.376 0 .576-.05.15-.05.275-.224.45-.224.1 0 .225.05.325.05.075 0 .15-.076.225-.076.075 0 .15.026.2 0l.075-.075c.05-.075.125-.15.175-.225l.075-.075c.026-.025.05-.025.1-.025.3-.1.575-.276.775-.526.024-.024.05-.05.074-.05.026-.025.05-.025.076-.025.075-.025.174-.05.25-.075-.076.025-.125-.1-.2-.15-.1-.076-.225-.026-.35-.05-.1-.026-.2-.1-.3-.05-.05.025-.075.075-.125.075-.075 0-.125-.05-.2-.05-.026 0-.05 0-.075.026-.25.075-.55.1-.8.15.05.05 0 .125-.026.175-.05.075-.1.125-.174.175-.076.05-.175.025-.25.075-.05.025-.1.075-.15.125-.05.025-.1.025-.126.05-.125.075-.175.224-.3.25-.075.025-.15 0-.2 0-.125.025-.175.175-.275.25-.125.1-.325.1-.4.224-.026.026-.026.05-.026.1-.05.175-.25.275-.4.35.05.05.125.075.2.075-.099.026-.099.101-.099.151z"/>
            <path fill="#C11E43" d="M23.4 8.675c-.975-3.375-3.45-6.15-6.624-7.55-1.45-.65-3.076-1-4.776-1C5.45.125.125 5.45.125 12S5.45 23.875 12 23.875 23.875 18.55 23.875 12c0-1.15-.175-2.25-.475-3.325zM12 23.475c-3.575 0-6.776-1.65-8.875-4.225-.025-.15-.025-.275.05-.4.15-.026.3-.026.45-.05-.1-.276-.125-.55-.1-.85 0-.125.026-.275-.025-.4-.05-.075-.125-.125-.125-.2 0-.076.05-.15.125-.2.325-.35.375-.925.125-1.326-.075-.15-.2-.25-.325-.375-.25-.224-.5-.4-.825-.474.125-.076.075-.25-.026-.35-.1-.1-.25-.15-.325-.275-.15 0-.3-.076-.4-.2-.026-.026-.05-.076-.026-.1.026-.026.05-.026.075-.05.1-.05.026-.2-.025-.325-.075-.175-.05-.4-.075-.6-.026-.275-.2-.55-.425-.724-.05-.026-.1-.076-.15-.125-.1-.15 0-.35-.076-.5C1.05 11.75 1 11.7 1 11.675c0-.05.025-.075.05-.125.075-.15.025-.35-.1-.475-.025.075-.15.05-.175-.025-.025-.075-.025-.125-.025-.2.025-.175 0-.35-.05-.5l-.075.125c.225-1.65.8-3.175 1.625-4.5.075.025.15-.05.175-.1.025-.075.05-.15.1-.2.025-.026.075-.05.099-.05.1-.05.15-.175.225-.275.1-.15.25-.25.375-.35.025-.025.075-.05.1-.05.049 0 .074.05.049.075.075-.025.075-.125.125-.174.1-.2.35-.25.575-.25v.05c-.1 0-.175.124-.175.224.15 0 .3-.075.375-.2-.075-.026-.1-.125-.05-.2.05-.076.1-.125.175-.15.05-.026.1-.076.125-.126.026-.05.026-.125-.025-.15-.125.025-.225.075-.325.15.1-.1.224-.2.35-.25.075-.05.174-.075.25-.025.025.025.05.05.075.1.025.05.075.05.1.025v.075c.099-.05.2-.1.324-.125.026.025.026.075 0 .1.05 0 .15-.026.15-.076v-.075c0-.025.05-.05.076-.05.05-.025.1-.05.125-.1.025-.049 0-.124-.05-.15-.025-.05.1-.075.125-.125.026-.025 0-.075 0-.125 0-.075.1-.075.15-.125.1-.075.126-.2.2-.275.1-.1.25-.15.276-.275-.125.025-.224.05-.325.125-.025-.05.05-.1.1-.125.224-.125.424-.35.525-.6-.05-.025-.125 0-.175.05-.05.05-.075.1-.125.125-.075.05-.2.05-.275.125-.026.025-.05.075-.075.1-.125.124-.326.1-.45.224-.026.05-.05.1-.1.125-.05.025-.1.05-.125.075-.125.05-.225.125-.325.225 0-.15.15-.225.275-.325.05-.026.1-.076.15-.125.026-.026.076-.05.1-.1C7.4 1.25 9.625.525 12 .525c1.125 0 2.2.175 3.225.475.025.075.1.175.2.25.125.1.275.175.325.3-.075.05-.175.025-.225-.05.026.125.1.275.175.375-.05 0-.1.025-.15.025 0 .05.025.1.05.15-.076.026-.15.05-.25.05-.026.076-.076.151-.1.2-.025.076-.125.151-.175.1.025-.05.025-.1.05-.15-.075-.05-.15-.075-.25-.075.025.075.075.125.125.15-.15.05 0 .375-.15.425-.026 0-.05 0-.1.025-.05.026-.05.05-.025.076-.1-.076-.225-.15-.326-.2.125-.026.25-.05.4-.026.05-.075.026-.15-.05-.2-.074-.05-.15-.075-.224-.075-.2-.05-.424-.076-.625-.125-.3-.05-.625-.1-.875.05-.25.15-.375.45-.5.7-.025.05-.075.125-.125.15-.05.025-.125.05-.2.05-.175.025-.325.15-.375.3-.075.15 0 .35.15.424.2.1.425-.075.6-.224.05.125.1.275.125.4.025.1.1.225.2.25.1 0 .175-.075.225-.15.05-.075.075-.175.125-.25-.025-.05-.075-.125-.1-.175.1 0 .175-.075.2-.175 0-.1-.075-.175-.15-.2-.05-.075.025-.175.075-.225.075-.05.15-.1.175-.174.05-.076.025-.2.1-.25.075-.05.2.025.2.125s-.05.174-.15.224c-.076.026-.15.075-.15.15 0 .076.124.1.174.2.025.05.025.1.05.126.05.075.175 0 .25-.05.15-.1.325-.15.5-.125.075.05.05.2-.026.25-.075.05-.174.05-.275.05-.1 0-.2 0-.275.05.05.05.15.1.224.075.026.1-.025.2-.125.224-.05-.075-.125-.125-.2-.125-.05.15-.05.3 0 .45-.075 0-.125.026-.175.076-.15-.075-.35-.05-.474.075-.026.025-.076.075-.125.075-.026 0-.05-.05-.1-.05-.125-.075-.3.15-.4.05-.125-.075-.1-.275 0-.35-.076-.05-.15-.099-.25-.075v.425c-.076.1-.326-.025-.375.125v.1c-.026.05-.076.075-.125.075-.2.05-.35.15-.5.3-.15.05-.276.125-.35.25-.075-.026-.125-.075-.2-.05-.075.025-.125.125-.05.175-.075-.026-.15-.026-.25-.026 0 .05-.025.076-.025.125.15.076.275.225.35.375.025.026.025.076.025.1-.026.05-.076.075-.1.125-.025.05.025.15-.025.175-.026.025-.05.025-.076 0l-1.05-.075c0 .35-.1.7-.3.974.05.026.076.026.126.05.025.075-.026.175-.075.225.125.125.375-.026.45.125.025.05.025.1.075.125.05.025.1-.05.15-.076.076-.05.175 0 .276 0 .125 0 .25-.05.375-.125.025-.025.05-.025.1-.05.099-.05.224-.15.2-.25l-.125-.124c.224-.2.474-.375.724-.526-.1-.05-.05-.25.075-.25.076 0 .15.075.225.1.15.075.35-.026.4-.175.15-.075.3.075.425.2.15.175.35.325.55.425.125.075.25.125.325.225.075.1.075.275-.025.35 0 .049.05.049.075.049.175-.05.25-.325.125-.45.05-.075.2-.05.2.05.05.025.1-.026.1-.076-.276-.174-.575-.325-.85-.5 0-.174-.3-.3-.224-.474.1-.05.224-.075.325-.026.05.026.075.05.1.1.174.2.374.35.624.45-.025 0-.075-.025-.1-.025.151.05.326.125.35.275v.125c.026.125.15.2.276.25.175.075.25.35.425.475.075-.125.05-.276-.05-.375.025-.026.05-.05.1-.075-.126-.05-.2-.2-.151-.326.15-.1.35-.125.5-.05.025 0 .05.026.1.026s.1-.075.1-.125c.049 0 .074 0 .099-.025-.075-.076-.15-.15-.225-.25.15-.15.175-.4.05-.576.075.05.15-.05.175-.125.025-.075.075-.174.15-.15.05 0 .1.075.15.1.05 0 .076 0 .126-.026.224-.1.424-.2.65-.3.05.05.025.15-.025.2-.05.05-.1.126-.05.2.025.026.025.026.05.026.325.15.625.3.95.45-.075.276-.4.45-.675.35-.15-.05-.3-.2-.45-.175-.225.026-.375.276-.6.276h-.125c-.05.025-.05.05-.075.1-.075.099-.175.174-.3.2.125.1.225.224.3.35.075.099.125.224.25.274.1.05.3 0 .275-.125.076-.075.2 0 .3.05.1.05.25.05.25-.05.125 0 .25-.025.375-.025v.725c0 .15-.025.325-.15.425-.05.025-.1.05-.15.025-.1 0-.175-.075-.276-.075-.15 0-.25.15-.375.2-.225.075-.525-.15-.7 0-.026-.05-.026-.075-.075-.1-.026-.025-.05-.025-.076-.025-.15-.05-.3-.125-.45-.175-.15-.025-.35.05-.35.225 0 .05.026.125.026.175-.025.15-.25.174-.375.1-.125-.076-.3-.151-.425-.1-.05-.076-.1-.175-.075-.25-.325-.026-.625-.1-.9-.25-.026-.026-.076-.05-.076-.076-.025-.1.15-.125.2-.224.05-.125-.15-.3-.05-.375-.4 0-.799.025-1.174.025-.175 0-.325 0-.5.05s-.325.15-.475.225c-.15.075-.35.1-.5 0-.125-.076-.25-.2-.35-.1.05.225-.2.375-.4.45-.2.075-.45.2-.424.425 0 .075.025.125.025.2-.025.05-.075.1-.125.125-.025.15-.25.2-.4.25-.15.05-.276.175-.375.3-.2.25-.4.5-.576.75-.075.075-.125.175-.15.275-.025.125.025.276.125.35-.1 0-.1.125-.075.2.075.35-.1.75-.4.95.099 0 .174.05.224.15.025.1.025.175 0 .276 0 .05-.025.075 0 .1.025.025.05.025.075.025.25.075.375.375.475.65.05.125.1.25.175.375.025.05.05.076.075.1.05.05.125.075.175.1.25.125.35.45.575.625.025.025.05.025.075.05.05 0 .1-.026.125-.05.25-.15.55-.2.825-.125.125.025.225.075.35.1.125.025.275 0 .35-.1.05-.075.099-.175.174-.175.05 0 .1.025.15.05.1.025.2-.026.326-.05.3-.075.625.175.65.474.175-.025.35-.05.5-.1h.075c.05.026.076.076.125.126.026.05.125.075.15.025.026.25 0 .526-.099.776-.025.075-.075.174-.05.25 0 .05.026.075.05.1.2.324.45.624.725.874 0 .2.05.35.1.55.025.15.075.275.099.425.025.1.05.224 0 .3-.025.05-.075.075-.1.1-.2.174-.3.45-.275.724.025.275.15.525.35.7.05.05.125.125.15.2.05.1.025.2.025.3 0 .55.675.975.55 1.5.575-.025 1.15-.15 1.675-.35.5-.2.975-.525 1.2-1 .026-.075.05-.174.125-.224.1-.075.225-.1.325-.15.276-.126.375-.5.175-.725.276-.225.575-.475.85-.7.1-.076.2-.175.275-.3.175-.3.05-.7.15-1.026-.124 0-.2-.125-.2-.224 0-.125.026-.225 0-.35-.025-.05-.05-.1-.05-.15 0-.05 0-.1.026-.15.1-.3.275-.55.45-.8.05-.075.1-.125.15-.2l.901-1.276c.175-.225.35-.474.375-.775.025-.175-.025-.35.025-.526.026-.1.076-.2.076-.325s-.026-.25-.125-.275c-.276.25-.6.45-.95.575-.05.025-.1.025-.151 0-.05-.025-.05-.075-.075-.15-.05-.25-.25-.475-.5-.576-.075-.025-.175-.05-.25-.125-.05-.05-.05-.125-.075-.174-.1-.25-.276-.475-.5-.625-.026.025-.05.05-.05.1-.05-.026-.026-.1 0-.151.025-.05.05-.075.075-.125 0-.05 0-.1-.025-.15-.1-.2-.375-.35-.4-.576 0-.05 0-.1-.026-.15-.026-.1-.175-.15-.225-.25-.075-.075-.075-.2-.15-.3-.05-.075-.125-.125-.2-.175-.076-.05-.125-.15-.076-.224.05.125.175.2.3.224.026-.075.026-.15 0-.224.075.174.25.3.375.45.075.1.125.2.175.3.075.15.175.275.25.4l.3.375c.175.2.375.375.6.525.05.026.075.05.099.1.025.1-.1.175-.1.275 0 .125.2.15.3.276.075.075.05.2.075.3 0 .1.05.224.125.25.1.025.175-.026.25-.1.3-.25.6-.525.9-.8.05-.05.1-.1.126-.175.025-.05.025-.075.05-.125.075-.15.35-.174.4-.35.025-.05 0-.124.025-.174.026-.075.076-.125.125-.2.076-.125.1-.3.1-.45 0-.1 0-.175-.05-.25-.05-.076-.15-.125-.224-.076-.347-.119-.472-.194-.597-.194.025-.15-.025-.275-.125-.4-.05.25-.125.525-.375.6-.05.025-.075.025-.125 0-.05-.026-.1-.05-.125-.1-.225-.276-.475-.526-.7-.8-.026-.026-.05-.05-.05-.075 0-.1.2-.1.25-.2.1.124.224.25.325.4.1.1.2.224.35.2.05 0 .1-.025.15 0 .025 0 .05.025.075.05.1.025.125-.15.225-.2.05-.026.125.025.175.075.05.05.075.125.125.15.05.026.125.026.174 0 .2-.025.375-.1.55-.175.05-.025.1-.05.125-.05.175-.025.276.175.425.25.075.05.175.05.275.026.026.025-.025.075-.05.1-.025.025-.075.025-.099.05-.025.05 0 .075.05.099.1.1.25.15.375.125V9.35c.05.025.05.075.075.125.175.525.35 1.025.525 1.55.05.099.076.224.1.349.025.1 0 .2.05.275.025.076.1.125.15.175v.2c-.05 6.301-5.2 11.45-11.525 11.45z"/>
        </g>
    </g>
</svg>
